<svg xmlns="http://www.w3.org/2000/svg" viewBox="0 0 800 800">
    <path fill="#f500a2" d="M750.74 22.236l-0.661-2.15-1.075-1.985-0.827-1.571a24.81 24.81 0 0 0-5.79-5.707q-0.661-0.496-1.488-0.827l-1.985-1.075-2.067-0.661-1.82-0.497a24.81 24.81 0 0 0-4.052-0.413H162.247q-1.82 0-3.721 0.413h-0.331a24.81 24.81 0 0 0-6.12 2.399q-2.481 1.323-4.466 3.308L13.387 147.61a24.81 24.81 0 0 0-3.804 5.54q-1.24 2.481-1.82 5.045v0.248q-0.413 1.82-0.413 3.804v568.728q0 2.067 0.414 4.052l0.496 1.82 0.661 2.067 1.075 1.985 0.827 1.571q2.233 3.308 5.79 5.707 0.661 0.496 1.488 0.827 0.992 0.661 1.985 1.075l2.067 0.661 1.82 0.496q2.067 0.414 4.052 0.414h568.81q1.985 0 3.97-0.414l2.233-0.661 1.654-0.496q1.24-0.58 2.316-1.324l1.157-0.578q1.737-1.24 3.226-2.647l134.14-134.14a24.81 24.81 0 0 0 3.886-5.54q1.323-2.481 1.82-5.045v-0.248q0.413-1.82 0.413-3.804V28.025q0-2.068-0.413-4.052zm-609.168 55.74v63.679H77.893zM48.7 183.005h92.872v10.916c-41.929 52.267-67.07 118.51-67.07 190.541 0 72.032 25.141 138.357 67.07 190.624v13.066L48.7 681.107zm92.872 87.827v227.26a264.64 264.64 0 0 1-25.72-113.63 264.64 264.64 0 0 1 25.72-113.63M576.078 710.3H77.976l92.872-92.872h11.991A303.509 303.509 0 0 0 379.5 689.542c74.844 0 143.402-27.208 196.578-72.031zm-320.05-92.872h246.86a262.159 262.159 0 0 1-246.776 0m320.049-57.394q-7.443 8.27-15.713 16.044H198.635q-8.27-7.691-15.713-16.044V208.973q12.405-13.894 26.795-26.05h339.566q14.307 12.156 26.795 26.05zM276.952 141.572a262.986 262.986 0 0 1 205.261 0zm311.283 0h-24.397c-108.833-82.931-259.678-82.931-368.51 0h-12.323V48.7h498.102zm29.276 129.26a264.64 264.64 0 0 1 25.72 113.63c0 40.688-9.263 79.227-25.72 113.63zm0 410.192v-63.679h63.679zM710.3 575.995h-92.872v-0.91c41.929-52.266 67.07-118.509 67.07-190.623s-25.141-138.274-67.07-190.54v-23.074L710.3 77.976z"></path>
</svg>
